<mxfile host="app.diagrams.net" agent="Mozilla/5.0 (Windows NT 10.0; Win64; x64) AppleWebKit/537.36 (KHTML, like Gecko) Chrome/128.0.0.0 Safari/537.36" version="24.7.16">
  <diagram name="Page-1" id="_Imi20YF65p1r5JZfGh4">
    <mxGraphModel dx="2000" dy="627" grid="1" gridSize="10" guides="1" tooltips="1" connect="1" arrows="1" fold="1" page="1" pageScale="1" pageWidth="850" pageHeight="1100" math="0" shadow="0">
      <root>
        <mxCell id="0" />
        <mxCell id="1" parent="0" />
        <mxCell id="EB2zFyWqHdrt-Vx0YhkD-147" value="" style="rounded=0;whiteSpace=wrap;html=1;fillColor=#000000;" parent="1" vertex="1">
          <mxGeometry x="-167.18" y="1427.75" width="234.35" height="110" as="geometry" />
        </mxCell>
        <mxCell id="EB2zFyWqHdrt-Vx0YhkD-103" value="" style="rounded=0;whiteSpace=wrap;html=1;" parent="1" vertex="1">
          <mxGeometry x="675" y="1210" width="35" height="98" as="geometry" />
        </mxCell>
        <mxCell id="EB2zFyWqHdrt-Vx0YhkD-168" style="edgeStyle=orthogonalEdgeStyle;rounded=0;orthogonalLoop=1;jettySize=auto;html=1;" parent="1" source="EB2zFyWqHdrt-Vx0YhkD-1" edge="1">
          <mxGeometry relative="1" as="geometry">
            <mxPoint x="-280" y="928.5" as="targetPoint" />
          </mxGeometry>
        </mxCell>
        <mxCell id="VmPB6jEaRMW4YE85yMJ9-1" value="Hold" style="edgeLabel;html=1;align=center;verticalAlign=middle;resizable=0;points=[];" vertex="1" connectable="0" parent="EB2zFyWqHdrt-Vx0YhkD-168">
          <mxGeometry x="0.1532" relative="1" as="geometry">
            <mxPoint as="offset" />
          </mxGeometry>
        </mxCell>
        <mxCell id="EB2zFyWqHdrt-Vx0YhkD-1" value="" style="html=1;verticalLabelPosition=bottom;labelBackgroundColor=#ffffff;verticalAlign=top;shadow=0;dashed=0;strokeWidth=1;shape=mxgraph.ios7ui.iconGrid;fillColor=#c0c0c0;gridSize=3,3;" parent="1" vertex="1">
          <mxGeometry x="-137.5" y="817" width="175" height="223" as="geometry" />
        </mxCell>
        <mxCell id="EB2zFyWqHdrt-Vx0YhkD-2" value="" style="rounded=0;whiteSpace=wrap;html=1;fillColor=#787878;" parent="1" vertex="1">
          <mxGeometry x="160" y="726" width="220" height="174" as="geometry" />
        </mxCell>
        <mxCell id="EB2zFyWqHdrt-Vx0YhkD-3" value="" style="rounded=0;whiteSpace=wrap;html=1;" parent="1" vertex="1">
          <mxGeometry x="170" y="740" width="210" height="160" as="geometry" />
        </mxCell>
        <mxCell id="EB2zFyWqHdrt-Vx0YhkD-4" value="" style="rounded=0;whiteSpace=wrap;html=1;fillColor=#666666;strokeColor=none;" parent="1" vertex="1">
          <mxGeometry x="475" y="460" width="230" height="50" as="geometry" />
        </mxCell>
        <mxCell id="EB2zFyWqHdrt-Vx0YhkD-5" value="" style="rounded=0;whiteSpace=wrap;html=1;fillColor=#666666;strokeColor=none;" parent="1" vertex="1">
          <mxGeometry x="480" y="150" width="230" height="40" as="geometry" />
        </mxCell>
        <mxCell id="EB2zFyWqHdrt-Vx0YhkD-6" value="" style="verticalLabelPosition=bottom;verticalAlign=top;html=1;shadow=0;dashed=0;strokeWidth=1;shape=mxgraph.android.phone2;fillColor=#ffffff;strokeColor=#666666;fontColor=#333333;" parent="1" vertex="1">
          <mxGeometry x="-170" y="110" width="240" height="440" as="geometry" />
        </mxCell>
        <mxCell id="EB2zFyWqHdrt-Vx0YhkD-7" value="&lt;font style=&quot;font-size: 15px;&quot;&gt;Welcome back,&lt;/font&gt;&lt;div style=&quot;font-size: 15px;&quot;&gt;&lt;font style=&quot;font-size: 15px;&quot;&gt;User&amp;nbsp;&lt;/font&gt;&lt;/div&gt;" style="text;html=1;align=center;verticalAlign=middle;whiteSpace=wrap;rounded=0;" parent="1" vertex="1">
          <mxGeometry x="140" y="159.71" width="150" height="52" as="geometry" />
        </mxCell>
        <mxCell id="EB2zFyWqHdrt-Vx0YhkD-8" value="Take a photo" style="rounded=1;html=1;shadow=0;dashed=0;whiteSpace=wrap;fontSize=10;fillColor=#666666;align=center;strokeColor=#4D4D4D;fontColor=#ffffff;arcSize=4;" parent="1" vertex="1">
          <mxGeometry x="192.75" y="330" width="120" height="36.88" as="geometry" />
        </mxCell>
        <mxCell id="EB2zFyWqHdrt-Vx0YhkD-9" value="View Collection" style="rounded=1;html=1;shadow=0;dashed=0;whiteSpace=wrap;fontSize=10;fillColor=#E6E6E6;align=center;strokeColor=#E6E6E6;fontColor=#333333;" parent="1" vertex="1">
          <mxGeometry x="192.75" y="390" width="120" height="40" as="geometry" />
        </mxCell>
        <mxCell id="EB2zFyWqHdrt-Vx0YhkD-10" value="" style="verticalLabelPosition=bottom;verticalAlign=top;html=1;shadow=0;dashed=0;strokeWidth=1;shape=mxgraph.android.phone2;fillColor=#ffffff;strokeColor=#666666;fontColor=#333333;" parent="1" vertex="1">
          <mxGeometry x="132.75" y="110" width="240" height="440" as="geometry" />
        </mxCell>
        <mxCell id="EB2zFyWqHdrt-Vx0YhkD-11" value="" style="rounded=0;whiteSpace=wrap;html=1;fillColor=#545454;strokeColor=#545454;" parent="1" vertex="1">
          <mxGeometry x="-160" y="150" width="90" height="360" as="geometry" />
        </mxCell>
        <mxCell id="EB2zFyWqHdrt-Vx0YhkD-12" value="Dream Garage" style="rounded=1;html=1;shadow=0;dashed=0;whiteSpace=wrap;fontSize=10;fillColor=#666666;align=center;strokeColor=#4D4D4D;fontColor=#ffffff;arcSize=4;" parent="1" vertex="1">
          <mxGeometry x="192.75" y="450" width="120" height="36.88" as="geometry" />
        </mxCell>
        <mxCell id="EB2zFyWqHdrt-Vx0YhkD-13" value="[Insert Car photo]" style="rounded=0;whiteSpace=wrap;html=1;" parent="1" vertex="1">
          <mxGeometry x="150" y="220" width="210" height="98" as="geometry" />
        </mxCell>
        <mxCell id="EB2zFyWqHdrt-Vx0YhkD-14" style="edgeStyle=orthogonalEdgeStyle;rounded=0;orthogonalLoop=1;jettySize=auto;html=1;" parent="1" edge="1">
          <mxGeometry relative="1" as="geometry">
            <mxPoint x="335" y="160.35000000000002" as="sourcePoint" />
            <mxPoint x="-120" y="150" as="targetPoint" />
            <Array as="points">
              <mxPoint x="335" y="80" />
              <mxPoint x="-120" y="80" />
            </Array>
          </mxGeometry>
        </mxCell>
        <mxCell id="EB2zFyWqHdrt-Vx0YhkD-15" value="" style="verticalLabelPosition=bottom;verticalAlign=top;html=1;shadow=0;dashed=0;strokeWidth=1;shape=mxgraph.android.phone2;fillColor=#ffffff;strokeColor=#666666;fontColor=#333333;" parent="1" vertex="1">
          <mxGeometry x="470" y="110" width="240" height="440" as="geometry" />
        </mxCell>
        <mxCell id="EB2zFyWqHdrt-Vx0YhkD-16" value="" style="html=1;verticalLabelPosition=bottom;labelBackgroundColor=#ffffff;verticalAlign=top;shadow=0;dashed=0;strokeWidth=2;shape=mxgraph.ios7.misc.flagged;strokeColor=#FFFFFF;rotation=45;" parent="1" vertex="1">
          <mxGeometry x="-151.85" y="159.71" width="20" height="19.59" as="geometry" />
        </mxCell>
        <mxCell id="EB2zFyWqHdrt-Vx0YhkD-17" value="Help" style="text;html=1;align=center;verticalAlign=middle;whiteSpace=wrap;rounded=0;fontColor=#ffffff;" parent="1" vertex="1">
          <mxGeometry x="-170" y="430" width="80" height="30" as="geometry" />
        </mxCell>
        <mxCell id="EB2zFyWqHdrt-Vx0YhkD-18" value="Themes" style="text;html=1;align=center;verticalAlign=middle;whiteSpace=wrap;rounded=0;fontColor=#ffffff;" parent="1" vertex="1">
          <mxGeometry x="-170" y="191.01" width="80" height="30" as="geometry" />
        </mxCell>
        <mxCell id="EB2zFyWqHdrt-Vx0YhkD-19" value="My Account" style="text;html=1;align=center;verticalAlign=middle;whiteSpace=wrap;rounded=0;fontColor=#ffffff;" parent="1" vertex="1">
          <mxGeometry x="-160" y="221.01" width="80" height="30" as="geometry" />
        </mxCell>
        <mxCell id="EB2zFyWqHdrt-Vx0YhkD-20" value="About" style="text;html=1;align=center;verticalAlign=middle;whiteSpace=wrap;rounded=0;fontColor=#ffffff;" parent="1" vertex="1">
          <mxGeometry x="-170" y="460" width="80" height="30" as="geometry" />
        </mxCell>
        <mxCell id="EB2zFyWqHdrt-Vx0YhkD-21" value="Permissions" style="text;html=1;align=center;verticalAlign=middle;whiteSpace=wrap;rounded=0;fontColor=#ffffff;" parent="1" vertex="1">
          <mxGeometry x="-160" y="254" width="80" height="30" as="geometry" />
        </mxCell>
        <mxCell id="EB2zFyWqHdrt-Vx0YhkD-22" value="" style="html=1;verticalLabelPosition=bottom;align=center;labelBackgroundColor=#ffffff;verticalAlign=top;strokeWidth=2;strokeColor=#545454;shadow=0;dashed=0;shape=mxgraph.ios7.icons.page_navigation;pointerEvents=1" parent="1" vertex="1">
          <mxGeometry x="320" y="167.1" width="30" height="4.8" as="geometry" />
        </mxCell>
        <mxCell id="EB2zFyWqHdrt-Vx0YhkD-24" style="edgeStyle=orthogonalEdgeStyle;rounded=0;orthogonalLoop=1;jettySize=auto;html=1;entryX=-0.004;entryY=0.294;entryDx=0;entryDy=0;entryPerimeter=0;" parent="1" source="EB2zFyWqHdrt-Vx0YhkD-8" target="EB2zFyWqHdrt-Vx0YhkD-15" edge="1">
          <mxGeometry relative="1" as="geometry" />
        </mxCell>
        <mxCell id="EB2zFyWqHdrt-Vx0YhkD-25" style="edgeStyle=orthogonalEdgeStyle;rounded=0;orthogonalLoop=1;jettySize=auto;html=1;entryX=0.999;entryY=0.634;entryDx=0;entryDy=0;entryPerimeter=0;" parent="1" source="EB2zFyWqHdrt-Vx0YhkD-15" target="EB2zFyWqHdrt-Vx0YhkD-10" edge="1">
          <mxGeometry relative="1" as="geometry" />
        </mxCell>
        <mxCell id="EB2zFyWqHdrt-Vx0YhkD-26" value="back nav&amp;nbsp;&lt;div&gt;pressed&lt;/div&gt;" style="edgeLabel;html=1;align=center;verticalAlign=middle;resizable=0;points=[];" parent="EB2zFyWqHdrt-Vx0YhkD-25" vertex="1" connectable="0">
          <mxGeometry x="0.2307" y="2" relative="1" as="geometry">
            <mxPoint as="offset" />
          </mxGeometry>
        </mxCell>
        <mxCell id="EB2zFyWqHdrt-Vx0YhkD-27" value="" style="ellipse;whiteSpace=wrap;html=1;aspect=fixed;" parent="1" vertex="1">
          <mxGeometry x="570" y="465" width="40" height="40" as="geometry" />
        </mxCell>
        <mxCell id="EB2zFyWqHdrt-Vx0YhkD-29" value="" style="verticalLabelPosition=bottom;verticalAlign=top;html=1;shadow=0;dashed=0;strokeWidth=1;shape=mxgraph.android.phone2;fillColor=#ffffff;strokeColor=#666666;fontColor=#333333;" parent="1" vertex="1">
          <mxGeometry x="470" y="1120" width="240" height="440" as="geometry" />
        </mxCell>
        <mxCell id="EB2zFyWqHdrt-Vx0YhkD-30" style="edgeStyle=orthogonalEdgeStyle;rounded=0;orthogonalLoop=1;jettySize=auto;html=1;" parent="1" source="EB2zFyWqHdrt-Vx0YhkD-27" edge="1">
          <mxGeometry relative="1" as="geometry">
            <mxPoint x="589" y="580" as="targetPoint" />
          </mxGeometry>
        </mxCell>
        <mxCell id="EB2zFyWqHdrt-Vx0YhkD-31" value="[Photo Preview]" style="rounded=0;whiteSpace=wrap;html=1;" parent="1" vertex="1">
          <mxGeometry x="485" y="1210" width="175" height="98" as="geometry" />
        </mxCell>
        <mxCell id="EB2zFyWqHdrt-Vx0YhkD-32" value="" style="html=1;verticalLabelPosition=bottom;align=center;labelBackgroundColor=#ffffff;verticalAlign=top;strokeWidth=2;strokeColor=#545454;shadow=0;dashed=0;shape=mxgraph.ios7.icons.page_navigation;pointerEvents=1" parent="1" vertex="1">
          <mxGeometry x="655" y="1180" width="30" height="4.8" as="geometry" />
        </mxCell>
        <mxCell id="EB2zFyWqHdrt-Vx0YhkD-33" value="" style="html=1;verticalLabelPosition=bottom;labelBackgroundColor=#ffffff;verticalAlign=top;shadow=0;dashed=0;strokeWidth=2;shape=mxgraph.ios7.misc.left;strokeColor=#545454;" parent="1" vertex="1">
          <mxGeometry x="495" y="1173.9" width="10" height="17" as="geometry" />
        </mxCell>
        <mxCell id="EB2zFyWqHdrt-Vx0YhkD-34" value="Car:" style="text;html=1;align=center;verticalAlign=middle;whiteSpace=wrap;rounded=0;" parent="1" vertex="1">
          <mxGeometry x="470" y="1325" width="60" height="30" as="geometry" />
        </mxCell>
        <mxCell id="EB2zFyWqHdrt-Vx0YhkD-35" value="" style="rounded=0;whiteSpace=wrap;html=1;" parent="1" vertex="1">
          <mxGeometry x="530" y="1328.75" width="165" height="22.5" as="geometry" />
        </mxCell>
        <mxCell id="EB2zFyWqHdrt-Vx0YhkD-36" value="" style="shape=image;html=1;verticalAlign=top;verticalLabelPosition=bottom;labelBackgroundColor=#ffffff;imageAspect=0;aspect=fixed;image=https://cdn2.iconfinder.com/data/icons/navigation-set-arrows-part-two/32/Arrow_Drop_Down_Circle-128.png" parent="1" vertex="1">
          <mxGeometry x="667" y="1331" width="18" height="18" as="geometry" />
        </mxCell>
        <mxCell id="EB2zFyWqHdrt-Vx0YhkD-37" value="Location:" style="text;html=1;align=center;verticalAlign=middle;whiteSpace=wrap;rounded=0;" parent="1" vertex="1">
          <mxGeometry x="485" y="1366.25" width="60" height="30" as="geometry" />
        </mxCell>
        <mxCell id="EB2zFyWqHdrt-Vx0YhkD-38" value="" style="rounded=0;whiteSpace=wrap;html=1;" parent="1" vertex="1">
          <mxGeometry x="545" y="1370" width="150" height="22.5" as="geometry" />
        </mxCell>
        <mxCell id="EB2zFyWqHdrt-Vx0YhkD-39" value="Album:" style="text;html=1;align=center;verticalAlign=middle;whiteSpace=wrap;rounded=0;" parent="1" vertex="1">
          <mxGeometry x="475" y="1403.75" width="60" height="30" as="geometry" />
        </mxCell>
        <mxCell id="EB2zFyWqHdrt-Vx0YhkD-40" value="" style="rounded=0;whiteSpace=wrap;html=1;" parent="1" vertex="1">
          <mxGeometry x="530" y="1407.5" width="165" height="22.5" as="geometry" />
        </mxCell>
        <mxCell id="EB2zFyWqHdrt-Vx0YhkD-41" value="" style="shape=image;html=1;verticalAlign=top;verticalLabelPosition=bottom;labelBackgroundColor=#ffffff;imageAspect=0;aspect=fixed;image=https://cdn2.iconfinder.com/data/icons/navigation-set-arrows-part-two/32/Arrow_Drop_Down_Circle-128.png" parent="1" vertex="1">
          <mxGeometry x="667" y="1409.75" width="18" height="18" as="geometry" />
        </mxCell>
        <mxCell id="EB2zFyWqHdrt-Vx0YhkD-42" value="" style="html=1;verticalLabelPosition=bottom;labelBackgroundColor=#ffffff;verticalAlign=top;shadow=0;dashed=0;strokeWidth=2;shape=mxgraph.ios7.misc.left;strokeColor=#ffffff;" parent="1" vertex="1">
          <mxGeometry x="500" y="161" width="10" height="17" as="geometry" />
        </mxCell>
        <mxCell id="EB2zFyWqHdrt-Vx0YhkD-126" style="edgeStyle=orthogonalEdgeStyle;rounded=0;orthogonalLoop=1;jettySize=auto;html=1;" parent="1" source="EB2zFyWqHdrt-Vx0YhkD-43" edge="1">
          <mxGeometry relative="1" as="geometry">
            <mxPoint x="440" y="1493" as="targetPoint" />
          </mxGeometry>
        </mxCell>
        <mxCell id="EB2zFyWqHdrt-Vx0YhkD-43" value="Add photo" style="rounded=1;html=1;shadow=0;dashed=0;whiteSpace=wrap;fontSize=10;fillColor=#666666;align=center;strokeColor=#4D4D4D;fontColor=#ffffff;" parent="1" vertex="1">
          <mxGeometry x="495" y="1480" width="80" height="26.88" as="geometry" />
        </mxCell>
        <mxCell id="EB2zFyWqHdrt-Vx0YhkD-115" style="edgeStyle=orthogonalEdgeStyle;rounded=0;orthogonalLoop=1;jettySize=auto;html=1;entryX=0;entryY=0.5;entryDx=0;entryDy=0;" parent="1" source="EB2zFyWqHdrt-Vx0YhkD-44" target="EB2zFyWqHdrt-Vx0YhkD-111" edge="1">
          <mxGeometry relative="1" as="geometry" />
        </mxCell>
        <mxCell id="EB2zFyWqHdrt-Vx0YhkD-44" value="Discard" style="rounded=1;html=1;shadow=0;dashed=0;whiteSpace=wrap;fontSize=10;fillColor=#E6E6E6;align=center;strokeColor=#E6E6E6;fontColor=#333333;" parent="1" vertex="1">
          <mxGeometry x="600" y="1480" width="85" height="26.88" as="geometry" />
        </mxCell>
        <mxCell id="EB2zFyWqHdrt-Vx0YhkD-45" value="" style="verticalLabelPosition=bottom;verticalAlign=top;html=1;shadow=0;dashed=0;strokeWidth=1;shape=mxgraph.android.phone2;fillColor=#ffffff;strokeColor=#666666;fontColor=#333333;" parent="1" vertex="1">
          <mxGeometry x="-170" y="600" width="240" height="440" as="geometry" />
        </mxCell>
        <mxCell id="EB2zFyWqHdrt-Vx0YhkD-47" style="edgeStyle=orthogonalEdgeStyle;rounded=0;orthogonalLoop=1;jettySize=auto;html=1;entryX=1.004;entryY=0.468;entryDx=0;entryDy=0;entryPerimeter=0;" parent="1" source="EB2zFyWqHdrt-Vx0YhkD-9" target="EB2zFyWqHdrt-Vx0YhkD-45" edge="1">
          <mxGeometry relative="1" as="geometry">
            <Array as="points">
              <mxPoint x="100" y="410" />
              <mxPoint x="100" y="806" />
            </Array>
          </mxGeometry>
        </mxCell>
        <mxCell id="EB2zFyWqHdrt-Vx0YhkD-48" style="edgeStyle=orthogonalEdgeStyle;rounded=0;orthogonalLoop=1;jettySize=auto;html=1;entryX=0.471;entryY=0.01;entryDx=0;entryDy=0;entryPerimeter=0;" parent="1" source="EB2zFyWqHdrt-Vx0YhkD-12" target="EB2zFyWqHdrt-Vx0YhkD-46" edge="1">
          <mxGeometry relative="1" as="geometry" />
        </mxCell>
        <mxCell id="EB2zFyWqHdrt-Vx0YhkD-49" value="&lt;span style=&quot;font-size: 15px;&quot;&gt;My Dream Garage&lt;/span&gt;" style="text;html=1;align=center;verticalAlign=middle;whiteSpace=wrap;rounded=0;" parent="1" vertex="1">
          <mxGeometry x="185" y="660" width="150" height="52" as="geometry" />
        </mxCell>
        <mxCell id="EB2zFyWqHdrt-Vx0YhkD-50" value="" style="html=1;verticalLabelPosition=bottom;align=center;labelBackgroundColor=#ffffff;verticalAlign=top;strokeWidth=2;strokeColor=#545454;shadow=0;dashed=0;shape=mxgraph.ios7.icons.page_navigation;pointerEvents=1" parent="1" vertex="1">
          <mxGeometry x="330" y="660" width="30" height="4.8" as="geometry" />
        </mxCell>
        <mxCell id="EB2zFyWqHdrt-Vx0YhkD-51" value="" style="html=1;verticalLabelPosition=bottom;align=center;labelBackgroundColor=#ffffff;verticalAlign=top;strokeWidth=2;strokeColor=#545454;shadow=0;dashed=0;shape=mxgraph.ios7.icons.page_navigation;pointerEvents=1" parent="1" vertex="1">
          <mxGeometry x="20" y="660" width="30" height="4.8" as="geometry" />
        </mxCell>
        <mxCell id="EB2zFyWqHdrt-Vx0YhkD-52" value="" style="html=1;verticalLabelPosition=bottom;labelBackgroundColor=#ffffff;verticalAlign=top;shadow=0;dashed=0;strokeWidth=2;shape=mxgraph.ios7.misc.left;strokeColor=#545454;" parent="1" vertex="1">
          <mxGeometry x="170" y="653.9" width="10" height="17" as="geometry" />
        </mxCell>
        <mxCell id="EB2zFyWqHdrt-Vx0YhkD-53" value="" style="html=1;verticalLabelPosition=bottom;labelBackgroundColor=#ffffff;verticalAlign=top;shadow=0;dashed=0;strokeWidth=2;shape=mxgraph.ios7.misc.left;strokeColor=#545454;" parent="1" vertex="1">
          <mxGeometry x="-146.85000000000002" y="653.9" width="10" height="17" as="geometry" />
        </mxCell>
        <mxCell id="EB2zFyWqHdrt-Vx0YhkD-209" style="edgeStyle=orthogonalEdgeStyle;rounded=0;orthogonalLoop=1;jettySize=auto;html=1;entryX=0.45;entryY=0;entryDx=0;entryDy=0;entryPerimeter=0;" parent="1" source="EB2zFyWqHdrt-Vx0YhkD-54" target="EB2zFyWqHdrt-Vx0YhkD-213" edge="1">
          <mxGeometry relative="1" as="geometry">
            <mxPoint x="218" y="1130" as="targetPoint" />
          </mxGeometry>
        </mxCell>
        <mxCell id="VmPB6jEaRMW4YE85yMJ9-2" value="Tap" style="edgeLabel;html=1;align=center;verticalAlign=middle;resizable=0;points=[];" vertex="1" connectable="0" parent="EB2zFyWqHdrt-Vx0YhkD-209">
          <mxGeometry x="0.3501" y="-2" relative="1" as="geometry">
            <mxPoint as="offset" />
          </mxGeometry>
        </mxCell>
        <mxCell id="EB2zFyWqHdrt-Vx0YhkD-54" value="" style="rounded=0;whiteSpace=wrap;html=1;" parent="1" vertex="1">
          <mxGeometry x="185.25" y="759.75" width="65" height="130" as="geometry" />
        </mxCell>
        <mxCell id="EB2zFyWqHdrt-Vx0YhkD-55" value="" style="rounded=0;whiteSpace=wrap;html=1;" parent="1" vertex="1">
          <mxGeometry x="270" y="759.75" width="65" height="130.25" as="geometry" />
        </mxCell>
        <mxCell id="EB2zFyWqHdrt-Vx0YhkD-56" value="" style="shape=mxgraph.signs.transportation.car_4;html=1;pointerEvents=1;fillColor=#000000;strokeColor=none;verticalLabelPosition=bottom;verticalAlign=top;align=center;" parent="1" vertex="1">
          <mxGeometry x="192.75" y="842.75" width="50" height="41" as="geometry" />
        </mxCell>
        <mxCell id="EB2zFyWqHdrt-Vx0YhkD-233" style="edgeStyle=orthogonalEdgeStyle;rounded=0;orthogonalLoop=1;jettySize=auto;html=1;entryX=1.002;entryY=0.356;entryDx=0;entryDy=0;entryPerimeter=0;" parent="1" source="EB2zFyWqHdrt-Vx0YhkD-57" target="EB2zFyWqHdrt-Vx0YhkD-236" edge="1">
          <mxGeometry relative="1" as="geometry">
            <mxPoint x="360" y="1790" as="targetPoint" />
            <Array as="points">
              <mxPoint x="400" y="863" />
              <mxPoint x="400" y="1258" />
              <mxPoint x="380" y="1258" />
              <mxPoint x="380" y="1788" />
            </Array>
          </mxGeometry>
        </mxCell>
        <mxCell id="EB2zFyWqHdrt-Vx0YhkD-57" value="" style="shape=mxgraph.signs.transportation.car_4;html=1;pointerEvents=1;fillColor=#000000;strokeColor=none;verticalLabelPosition=bottom;verticalAlign=top;align=center;" parent="1" vertex="1">
          <mxGeometry x="277.5" y="842.75" width="50" height="41" as="geometry" />
        </mxCell>
        <mxCell id="EB2zFyWqHdrt-Vx0YhkD-58" style="edgeStyle=orthogonalEdgeStyle;rounded=0;orthogonalLoop=1;jettySize=auto;html=1;entryX=1.003;entryY=0.088;entryDx=0;entryDy=0;entryPerimeter=0;" parent="1" source="EB2zFyWqHdrt-Vx0YhkD-59" target="EB2zFyWqHdrt-Vx0YhkD-76" edge="1">
          <mxGeometry relative="1" as="geometry">
            <Array as="points">
              <mxPoint x="-170" y="707" />
              <mxPoint x="-170" y="710" />
              <mxPoint x="-190" y="710" />
              <mxPoint x="-190" y="711" />
            </Array>
          </mxGeometry>
        </mxCell>
        <mxCell id="EB2zFyWqHdrt-Vx0YhkD-59" value="" style="rounded=0;whiteSpace=wrap;html=1;" parent="1" vertex="1">
          <mxGeometry x="-151.85" y="696" width="107.5" height="22.5" as="geometry" />
        </mxCell>
        <mxCell id="EB2zFyWqHdrt-Vx0YhkD-60" value="" style="shape=image;html=1;verticalAlign=top;verticalLabelPosition=bottom;labelBackgroundColor=#ffffff;imageAspect=0;aspect=fixed;image=https://cdn2.iconfinder.com/data/icons/navigation-set-arrows-part-two/32/Arrow_Drop_Down_Circle-128.png" parent="1" vertex="1">
          <mxGeometry x="-70" y="698.25" width="18" height="18" as="geometry" />
        </mxCell>
        <mxCell id="EB2zFyWqHdrt-Vx0YhkD-61" value="All" style="text;html=1;align=center;verticalAlign=middle;whiteSpace=wrap;rounded=0;" parent="1" vertex="1">
          <mxGeometry x="-160" y="692.25" width="60" height="30" as="geometry" />
        </mxCell>
        <mxCell id="EB2zFyWqHdrt-Vx0YhkD-62" value="" style="verticalLabelPosition=bottom;verticalAlign=top;html=1;shadow=0;dashed=0;strokeWidth=1;shape=mxgraph.android.quickscroll3;dy=0.076;fillColor=#33b5e5;strokeColor=#66D5F5;" parent="1" vertex="1">
          <mxGeometry x="50" y="808" width="6" height="182" as="geometry" />
        </mxCell>
        <mxCell id="EB2zFyWqHdrt-Vx0YhkD-63" value="" style="verticalLabelPosition=bottom;verticalAlign=top;html=1;shadow=0;dashed=0;strokeWidth=1;shape=mxgraph.android.quickscroll3;dy=0.864;fillColor=#33b5e5;strokeColor=#66D5F5;direction=south;" parent="1" vertex="1">
          <mxGeometry x="170" y="930" width="187.25" height="6" as="geometry" />
        </mxCell>
        <mxCell id="EB2zFyWqHdrt-Vx0YhkD-64" value="Album" style="text;html=1;align=center;verticalAlign=middle;whiteSpace=wrap;rounded=0;" parent="1" vertex="1">
          <mxGeometry x="-160" y="670.9" width="60" height="30" as="geometry" />
        </mxCell>
        <mxCell id="EB2zFyWqHdrt-Vx0YhkD-65" value="" style="rounded=0;whiteSpace=wrap;html=1;" parent="1" vertex="1">
          <mxGeometry x="-151.85" y="740" width="107.5" height="22.5" as="geometry" />
        </mxCell>
        <mxCell id="EB2zFyWqHdrt-Vx0YhkD-66" value="" style="shape=image;html=1;verticalAlign=top;verticalLabelPosition=bottom;labelBackgroundColor=#ffffff;imageAspect=0;aspect=fixed;image=https://cdn2.iconfinder.com/data/icons/navigation-set-arrows-part-two/32/Arrow_Drop_Down_Circle-128.png" parent="1" vertex="1">
          <mxGeometry x="-70" y="742.25" width="18" height="18" as="geometry" />
        </mxCell>
        <mxCell id="EB2zFyWqHdrt-Vx0YhkD-140" style="edgeStyle=orthogonalEdgeStyle;rounded=0;orthogonalLoop=1;jettySize=auto;html=1;entryX=1.009;entryY=0.319;entryDx=0;entryDy=0;entryPerimeter=0;" parent="1" source="EB2zFyWqHdrt-Vx0YhkD-67" target="EB2zFyWqHdrt-Vx0YhkD-76" edge="1">
          <mxGeometry relative="1" as="geometry">
            <mxPoint x="-180" y="751.25" as="targetPoint" />
          </mxGeometry>
        </mxCell>
        <mxCell id="EB2zFyWqHdrt-Vx0YhkD-67" value="All" style="text;html=1;align=center;verticalAlign=middle;whiteSpace=wrap;rounded=0;" parent="1" vertex="1">
          <mxGeometry x="-160" y="736.25" width="60" height="30" as="geometry" />
        </mxCell>
        <mxCell id="EB2zFyWqHdrt-Vx0YhkD-68" value="Car" style="text;html=1;align=center;verticalAlign=middle;whiteSpace=wrap;rounded=0;" parent="1" vertex="1">
          <mxGeometry x="-170" y="716.25" width="60" height="30" as="geometry" />
        </mxCell>
        <mxCell id="EB2zFyWqHdrt-Vx0YhkD-69" style="edgeStyle=orthogonalEdgeStyle;rounded=0;orthogonalLoop=1;jettySize=auto;html=1;" parent="1" source="EB2zFyWqHdrt-Vx0YhkD-70" edge="1">
          <mxGeometry relative="1" as="geometry">
            <mxPoint x="-220" y="580" as="targetPoint" />
            <Array as="points">
              <mxPoint x="20" y="580" />
            </Array>
          </mxGeometry>
        </mxCell>
        <mxCell id="EB2zFyWqHdrt-Vx0YhkD-70" value="Add" style="rounded=1;html=1;shadow=0;dashed=0;whiteSpace=wrap;fontSize=10;fillColor=#666666;align=center;strokeColor=#4D4D4D;fontColor=#ffffff;" parent="1" vertex="1">
          <mxGeometry x="-10" y="696" width="60" height="17.13" as="geometry" />
        </mxCell>
        <mxCell id="EB2zFyWqHdrt-Vx0YhkD-71" value="" style="rounded=0;whiteSpace=wrap;html=1;" parent="1" vertex="1">
          <mxGeometry x="487.5" y="470" width="32.5" height="31.5" as="geometry" />
        </mxCell>
        <mxCell id="EB2zFyWqHdrt-Vx0YhkD-72" value="" style="rounded=0;whiteSpace=wrap;html=1;" parent="1" vertex="1">
          <mxGeometry x="-340" y="560" width="120" height="60" as="geometry" />
        </mxCell>
        <mxCell id="EB2zFyWqHdrt-Vx0YhkD-73" value="Add Album" style="text;html=1;align=center;verticalAlign=middle;whiteSpace=wrap;rounded=0;" parent="1" vertex="1">
          <mxGeometry x="-340" y="560" width="80" height="30" as="geometry" />
        </mxCell>
        <mxCell id="EB2zFyWqHdrt-Vx0YhkD-123" style="edgeStyle=orthogonalEdgeStyle;rounded=0;orthogonalLoop=1;jettySize=auto;html=1;" parent="1" source="EB2zFyWqHdrt-Vx0YhkD-75" target="EB2zFyWqHdrt-Vx0YhkD-121" edge="1">
          <mxGeometry relative="1" as="geometry">
            <Array as="points">
              <mxPoint x="-290" y="640" />
              <mxPoint x="-290" y="640" />
            </Array>
          </mxGeometry>
        </mxCell>
        <mxCell id="EB2zFyWqHdrt-Vx0YhkD-75" value="Add Photo&amp;nbsp; &amp;nbsp;" style="text;html=1;align=center;verticalAlign=middle;whiteSpace=wrap;rounded=0;" parent="1" vertex="1">
          <mxGeometry x="-340" y="590" width="90" height="30" as="geometry" />
        </mxCell>
        <mxCell id="EB2zFyWqHdrt-Vx0YhkD-76" value="" style="rounded=0;whiteSpace=wrap;html=1;" parent="1" vertex="1">
          <mxGeometry x="-320" y="696.25" width="120" height="173.75" as="geometry" />
        </mxCell>
        <mxCell id="EB2zFyWqHdrt-Vx0YhkD-78" value="Exotics" style="text;html=1;align=center;verticalAlign=middle;whiteSpace=wrap;rounded=0;" parent="1" vertex="1">
          <mxGeometry x="-320" y="746.25" width="60" height="30" as="geometry" />
        </mxCell>
        <mxCell id="EB2zFyWqHdrt-Vx0YhkD-79" value="" style="verticalLabelPosition=bottom;verticalAlign=top;html=1;shadow=0;dashed=0;strokeWidth=1;shape=mxgraph.android.quickscroll3;dy=0.076;fillColor=#33b5e5;strokeColor=#66D5F5;" parent="1" vertex="1">
          <mxGeometry x="-210" y="700.9" width="6" height="149.1" as="geometry" />
        </mxCell>
        <mxCell id="EB2zFyWqHdrt-Vx0YhkD-80" value="Sydney" style="text;html=1;align=center;verticalAlign=middle;whiteSpace=wrap;rounded=0;" parent="1" vertex="1">
          <mxGeometry x="-320" y="812.75" width="60" height="30" as="geometry" />
        </mxCell>
        <mxCell id="EB2zFyWqHdrt-Vx0YhkD-81" value="BMW" style="text;html=1;align=center;verticalAlign=middle;whiteSpace=wrap;rounded=0;" parent="1" vertex="1">
          <mxGeometry x="-325" y="768.12" width="60" height="30" as="geometry" />
        </mxCell>
        <mxCell id="EB2zFyWqHdrt-Vx0YhkD-82" value="Bmw G90 M5" style="text;html=1;align=center;verticalAlign=middle;whiteSpace=wrap;rounded=0;" parent="1" vertex="1">
          <mxGeometry x="-320" y="790.45" width="90" height="30" as="geometry" />
        </mxCell>
        <mxCell id="EB2zFyWqHdrt-Vx0YhkD-83" value="" style="rounded=0;whiteSpace=wrap;html=1;fillColor=#666666;strokeColor=none;" parent="1" vertex="1">
          <mxGeometry x="475" y="930" width="230" height="50" as="geometry" />
        </mxCell>
        <mxCell id="EB2zFyWqHdrt-Vx0YhkD-84" value="" style="rounded=0;whiteSpace=wrap;html=1;fillColor=#666666;strokeColor=none;" parent="1" vertex="1">
          <mxGeometry x="480" y="620" width="230" height="40" as="geometry" />
        </mxCell>
        <mxCell id="EB2zFyWqHdrt-Vx0YhkD-85" value="" style="verticalLabelPosition=bottom;verticalAlign=top;html=1;shadow=0;dashed=0;strokeWidth=1;shape=mxgraph.android.phone2;fillColor=#ffffff;strokeColor=#666666;fontColor=#333333;" parent="1" vertex="1">
          <mxGeometry x="470" y="580" width="240" height="440" as="geometry" />
        </mxCell>
        <mxCell id="EB2zFyWqHdrt-Vx0YhkD-87" value="" style="ellipse;whiteSpace=wrap;html=1;aspect=fixed;" parent="1" vertex="1">
          <mxGeometry x="570" y="935" width="40" height="40" as="geometry" />
        </mxCell>
        <mxCell id="EB2zFyWqHdrt-Vx0YhkD-89" style="edgeStyle=orthogonalEdgeStyle;rounded=0;orthogonalLoop=1;jettySize=auto;html=1;entryX=0.517;entryY=0.005;entryDx=0;entryDy=0;entryPerimeter=0;exitX=0.58;exitY=0.188;exitDx=0;exitDy=0;exitPerimeter=0;" parent="1" source="EB2zFyWqHdrt-Vx0YhkD-99" target="EB2zFyWqHdrt-Vx0YhkD-29" edge="1">
          <mxGeometry relative="1" as="geometry">
            <mxPoint x="589" y="1050" as="targetPoint" />
            <mxPoint x="760" y="980" as="sourcePoint" />
            <Array as="points">
              <mxPoint x="750" y="645" />
              <mxPoint x="750" y="1080" />
              <mxPoint x="594" y="1080" />
            </Array>
          </mxGeometry>
        </mxCell>
        <mxCell id="EB2zFyWqHdrt-Vx0YhkD-90" value="" style="html=1;verticalLabelPosition=bottom;labelBackgroundColor=#ffffff;verticalAlign=top;shadow=0;dashed=0;strokeWidth=2;shape=mxgraph.ios7.misc.left;strokeColor=#ffffff;" parent="1" vertex="1">
          <mxGeometry x="500" y="631" width="10" height="17" as="geometry" />
        </mxCell>
        <mxCell id="EB2zFyWqHdrt-Vx0YhkD-91" value="" style="rounded=0;whiteSpace=wrap;html=1;" parent="1" vertex="1">
          <mxGeometry x="487.5" y="940" width="32.5" height="31.5" as="geometry" />
        </mxCell>
        <mxCell id="EB2zFyWqHdrt-Vx0YhkD-92" value="" style="html=1;verticalLabelPosition=bottom;align=center;labelBackgroundColor=#ffffff;verticalAlign=top;strokeWidth=2;strokeColor=#ffffff;shadow=0;dashed=0;shape=mxgraph.ios7.icons.flash;" parent="1" vertex="1">
          <mxGeometry x="630" y="943.25" width="10" height="25" as="geometry" />
        </mxCell>
        <mxCell id="EB2zFyWqHdrt-Vx0YhkD-117" style="edgeStyle=orthogonalEdgeStyle;rounded=0;orthogonalLoop=1;jettySize=auto;html=1;" parent="1" source="EB2zFyWqHdrt-Vx0YhkD-93" target="EB2zFyWqHdrt-Vx0YhkD-116" edge="1">
          <mxGeometry relative="1" as="geometry" />
        </mxCell>
        <mxCell id="EB2zFyWqHdrt-Vx0YhkD-93" value="" style="html=1;verticalLabelPosition=bottom;align=center;labelBackgroundColor=#ffffff;verticalAlign=top;strokeWidth=1;strokeColor=#000000;shadow=0;dashed=0;shape=mxgraph.ios7.icons.share;" parent="1" vertex="1">
          <mxGeometry x="664" y="936" width="31" height="33.5" as="geometry" />
        </mxCell>
        <mxCell id="EB2zFyWqHdrt-Vx0YhkD-94" value="" style="html=1;verticalLabelPosition=bottom;align=center;labelBackgroundColor=#ffffff;verticalAlign=top;strokeWidth=2;strokeColor=#ffffff;shadow=0;dashed=0;shape=mxgraph.ios7.icons.reload;" parent="1" vertex="1">
          <mxGeometry x="540" y="477.06" width="15" height="17.38" as="geometry" />
        </mxCell>
        <mxCell id="EB2zFyWqHdrt-Vx0YhkD-95" value="" style="html=1;verticalLabelPosition=bottom;align=center;labelBackgroundColor=#ffffff;verticalAlign=top;strokeWidth=2;strokeColor=#ffffff;shadow=0;dashed=0;shape=mxgraph.ios7.icons.flash;" parent="1" vertex="1">
          <mxGeometry x="630" y="471.5" width="10" height="25" as="geometry" />
        </mxCell>
        <mxCell id="EB2zFyWqHdrt-Vx0YhkD-96" value="" style="html=1;verticalLabelPosition=bottom;align=center;labelBackgroundColor=#ffffff;verticalAlign=top;strokeWidth=1;strokeColor=#000000;shadow=0;dashed=0;shape=mxgraph.ios7.icons.share;" parent="1" vertex="1">
          <mxGeometry x="660.5" y="467.25" width="31" height="33.5" as="geometry" />
        </mxCell>
        <mxCell id="EB2zFyWqHdrt-Vx0YhkD-97" value="" style="html=1;verticalLabelPosition=bottom;align=center;labelBackgroundColor=#ffffff;verticalAlign=top;strokeWidth=2;strokeColor=#ffffff;shadow=0;dashed=0;shape=mxgraph.ios7.icons.reload;" parent="1" vertex="1">
          <mxGeometry x="540" y="947.06" width="15" height="17.38" as="geometry" />
        </mxCell>
        <mxCell id="EB2zFyWqHdrt-Vx0YhkD-98" value="" style="html=1;verticalLabelPosition=bottom;labelBackgroundColor=#ffffff;verticalAlign=top;shadow=0;dashed=0;strokeWidth=2;shape=mxgraph.ios7.misc.left;strokeColor=#ffffff;rotation=-180;" parent="1" vertex="1">
          <mxGeometry x="674.5" y="161.5" width="10" height="17" as="geometry" />
        </mxCell>
        <mxCell id="EB2zFyWqHdrt-Vx0YhkD-109" value="" style="rounded=0;whiteSpace=wrap;html=1;" parent="1" vertex="1">
          <mxGeometry x="357.25" y="759.75" width="22.75" height="130.25" as="geometry" />
        </mxCell>
        <mxCell id="EB2zFyWqHdrt-Vx0YhkD-99" value="" style="html=1;verticalLabelPosition=bottom;labelBackgroundColor=#ffffff;verticalAlign=top;shadow=0;dashed=0;strokeWidth=2;shape=mxgraph.ios7.misc.left;strokeColor=#ffffff;rotation=-180;" parent="1" vertex="1">
          <mxGeometry x="675" y="631" width="10" height="17" as="geometry" />
        </mxCell>
        <mxCell id="EB2zFyWqHdrt-Vx0YhkD-100" value="1" style="ellipse;whiteSpace=wrap;html=1;" parent="1" vertex="1">
          <mxGeometry x="510" y="931.06" width="20" height="16" as="geometry" />
        </mxCell>
        <mxCell id="EB2zFyWqHdrt-Vx0YhkD-102" value="" style="shape=mxgraph.signs.transportation.car_4;html=1;pointerEvents=1;fillColor=#000000;strokeColor=none;verticalLabelPosition=bottom;verticalAlign=top;align=center;" parent="1" vertex="1">
          <mxGeometry x="493.75" y="947.07" width="20" height="17.37" as="geometry" />
        </mxCell>
        <mxCell id="EB2zFyWqHdrt-Vx0YhkD-104" value="" style="html=1;verticalLabelPosition=bottom;labelBackgroundColor=#ffffff;verticalAlign=top;shadow=0;dashed=0;strokeWidth=2;shape=mxgraph.ios7.misc.left;strokeColor=#545454;rotation=-180;" parent="1" vertex="1">
          <mxGeometry x="684.5" y="1250.5" width="10" height="17" as="geometry" />
        </mxCell>
        <mxCell id="EB2zFyWqHdrt-Vx0YhkD-105" value="" style="endArrow=classic;html=1;rounded=0;" parent="1" edge="1">
          <mxGeometry width="50" height="50" relative="1" as="geometry">
            <mxPoint x="760" y="1230" as="sourcePoint" />
            <mxPoint x="701" y="1258" as="targetPoint" />
          </mxGeometry>
        </mxCell>
        <mxCell id="EB2zFyWqHdrt-Vx0YhkD-108" value="Next photo" style="text;html=1;align=center;verticalAlign=middle;whiteSpace=wrap;rounded=0;" parent="1" vertex="1">
          <mxGeometry x="750" y="1210" width="60" height="30" as="geometry" />
        </mxCell>
        <mxCell id="EB2zFyWqHdrt-Vx0YhkD-46" value="" style="verticalLabelPosition=bottom;verticalAlign=top;html=1;shadow=0;dashed=0;strokeWidth=1;shape=mxgraph.android.phone2;fillColor=#ffffff;strokeColor=#666666;fontColor=#333333;" parent="1" vertex="1">
          <mxGeometry x="140" y="600" width="240" height="440" as="geometry" />
        </mxCell>
        <mxCell id="EB2zFyWqHdrt-Vx0YhkD-111" value="Are you sure?" style="rounded=0;whiteSpace=wrap;html=1;" parent="1" vertex="1">
          <mxGeometry x="750" y="1463" width="180" height="97" as="geometry" />
        </mxCell>
        <mxCell id="EB2zFyWqHdrt-Vx0YhkD-112" value="No" style="rounded=1;html=1;shadow=0;dashed=0;whiteSpace=wrap;fontSize=10;fillColor=#666666;align=center;strokeColor=#4D4D4D;fontColor=#ffffff;" parent="1" vertex="1">
          <mxGeometry x="860" y="1523.12" width="50" height="26.88" as="geometry" />
        </mxCell>
        <mxCell id="EB2zFyWqHdrt-Vx0YhkD-113" value="Yes" style="rounded=1;html=1;shadow=0;dashed=0;whiteSpace=wrap;fontSize=10;fillColor=#E6E6E6;align=center;strokeColor=#E6E6E6;fontColor=#333333;" parent="1" vertex="1">
          <mxGeometry x="770" y="1523.12" width="50" height="26.88" as="geometry" />
        </mxCell>
        <mxCell id="EB2zFyWqHdrt-Vx0YhkD-116" value="Open in-phone camera library" style="text;html=1;align=center;verticalAlign=middle;whiteSpace=wrap;rounded=0;" parent="1" vertex="1">
          <mxGeometry x="780" y="943" width="130" height="30" as="geometry" />
        </mxCell>
        <mxCell id="EB2zFyWqHdrt-Vx0YhkD-119" value="" style="rounded=0;whiteSpace=wrap;html=1;" parent="1" vertex="1">
          <mxGeometry x="-540" y="560" width="160" height="110" as="geometry" />
        </mxCell>
        <mxCell id="EB2zFyWqHdrt-Vx0YhkD-120" value="&lt;u&gt;Add new Album&lt;/u&gt;" style="text;html=1;align=center;verticalAlign=middle;whiteSpace=wrap;rounded=0;" parent="1" vertex="1">
          <mxGeometry x="-510" y="560" width="100" height="30" as="geometry" />
        </mxCell>
        <mxCell id="EB2zFyWqHdrt-Vx0YhkD-121" value="Go to camera flow" style="text;html=1;align=center;verticalAlign=middle;whiteSpace=wrap;rounded=0;" parent="1" vertex="1">
          <mxGeometry x="-340" y="634.8" width="100" height="30" as="geometry" />
        </mxCell>
        <mxCell id="EB2zFyWqHdrt-Vx0YhkD-125" style="edgeStyle=orthogonalEdgeStyle;rounded=0;orthogonalLoop=1;jettySize=auto;html=1;entryX=1;entryY=0.088;entryDx=0;entryDy=0;entryPerimeter=0;" parent="1" source="EB2zFyWqHdrt-Vx0YhkD-73" target="EB2zFyWqHdrt-Vx0YhkD-119" edge="1">
          <mxGeometry relative="1" as="geometry" />
        </mxCell>
        <mxCell id="EB2zFyWqHdrt-Vx0YhkD-127" value="Go to collection" style="text;html=1;align=center;verticalAlign=middle;whiteSpace=wrap;rounded=0;" parent="1" vertex="1">
          <mxGeometry x="380" y="1478.44" width="60" height="30" as="geometry" />
        </mxCell>
        <mxCell id="EB2zFyWqHdrt-Vx0YhkD-130" value="" style="rounded=0;whiteSpace=wrap;html=1;" parent="1" vertex="1">
          <mxGeometry x="-530" y="611" width="140" height="20" as="geometry" />
        </mxCell>
        <mxCell id="EB2zFyWqHdrt-Vx0YhkD-131" value="Name" style="text;html=1;align=center;verticalAlign=middle;whiteSpace=wrap;rounded=0;" parent="1" vertex="1">
          <mxGeometry x="-570" y="581" width="100" height="30" as="geometry" />
        </mxCell>
        <mxCell id="EB2zFyWqHdrt-Vx0YhkD-132" value="" style="rounded=0;whiteSpace=wrap;html=1;" parent="1" vertex="1">
          <mxGeometry x="-151.85" y="785.5" width="107.5" height="22.5" as="geometry" />
        </mxCell>
        <mxCell id="EB2zFyWqHdrt-Vx0YhkD-133" value="Location" style="text;html=1;align=center;verticalAlign=middle;whiteSpace=wrap;rounded=0;" parent="1" vertex="1">
          <mxGeometry x="-160" y="760.45" width="60" height="30" as="geometry" />
        </mxCell>
        <mxCell id="EB2zFyWqHdrt-Vx0YhkD-134" value="" style="shape=image;html=1;verticalAlign=top;verticalLabelPosition=bottom;labelBackgroundColor=#ffffff;imageAspect=0;aspect=fixed;image=https://cdn2.iconfinder.com/data/icons/navigation-set-arrows-part-two/32/Arrow_Drop_Down_Circle-128.png" parent="1" vertex="1">
          <mxGeometry x="-70" y="787.75" width="18" height="18" as="geometry" />
        </mxCell>
        <mxCell id="EB2zFyWqHdrt-Vx0YhkD-135" value="All" style="text;html=1;align=center;verticalAlign=middle;whiteSpace=wrap;rounded=0;" parent="1" vertex="1">
          <mxGeometry x="-160" y="781.75" width="60" height="30" as="geometry" />
        </mxCell>
        <mxCell id="EB2zFyWqHdrt-Vx0YhkD-136" value="Search" style="rounded=0;whiteSpace=wrap;html=1;" parent="1" vertex="1">
          <mxGeometry x="-310" y="702.25" width="90" height="20" as="geometry" />
        </mxCell>
        <mxCell id="EB2zFyWqHdrt-Vx0YhkD-137" value="" style="html=1;verticalLabelPosition=bottom;align=center;labelBackgroundColor=#ffffff;verticalAlign=top;strokeWidth=2;strokeColor=#000000;shadow=0;dashed=0;shape=mxgraph.ios7.icons.looking_glass;" parent="1" vertex="1">
          <mxGeometry x="-306.25" y="705.38" width="12.5" height="13.75" as="geometry" />
        </mxCell>
        <mxCell id="EB2zFyWqHdrt-Vx0YhkD-143" style="edgeStyle=orthogonalEdgeStyle;rounded=0;orthogonalLoop=1;jettySize=auto;html=1;entryX=0.998;entryY=0.575;entryDx=0;entryDy=0;entryPerimeter=0;" parent="1" source="EB2zFyWqHdrt-Vx0YhkD-135" target="EB2zFyWqHdrt-Vx0YhkD-76" edge="1">
          <mxGeometry relative="1" as="geometry" />
        </mxCell>
        <mxCell id="EB2zFyWqHdrt-Vx0YhkD-144" value="" style="rounded=0;whiteSpace=wrap;html=1;strokeColor=#666666;fillColor=#f5f5f5;fontColor=#333333;" parent="1" vertex="1">
          <mxGeometry x="-315" y="725.25" width="105" height="24" as="geometry" />
        </mxCell>
        <mxCell id="EB2zFyWqHdrt-Vx0YhkD-77" value="All" style="text;html=1;align=center;verticalAlign=middle;whiteSpace=wrap;rounded=0;" parent="1" vertex="1">
          <mxGeometry x="-330" y="722.25" width="60" height="30" as="geometry" />
        </mxCell>
        <mxCell id="EB2zFyWqHdrt-Vx0YhkD-146" value="" style="rounded=0;whiteSpace=wrap;html=1;fillColor=#000000;" parent="1" vertex="1">
          <mxGeometry x="-164.35" y="1160" width="234.35" height="120" as="geometry" />
        </mxCell>
        <mxCell id="EB2zFyWqHdrt-Vx0YhkD-194" style="edgeStyle=orthogonalEdgeStyle;rounded=0;orthogonalLoop=1;jettySize=auto;html=1;" parent="1" edge="1">
          <mxGeometry relative="1" as="geometry">
            <mxPoint x="-180" y="1300" as="targetPoint" />
            <mxPoint x="-170" y="1300" as="sourcePoint" />
          </mxGeometry>
        </mxCell>
        <mxCell id="EB2zFyWqHdrt-Vx0YhkD-145" value="" style="verticalLabelPosition=bottom;verticalAlign=top;html=1;shadow=0;dashed=0;strokeWidth=1;shape=mxgraph.android.phone2;fillColor=#ffffff;strokeColor=#666666;fontColor=#333333;" parent="1" vertex="1">
          <mxGeometry x="-170" y="1130" width="240" height="440" as="geometry" />
        </mxCell>
        <mxCell id="EB2zFyWqHdrt-Vx0YhkD-148" style="edgeStyle=orthogonalEdgeStyle;rounded=0;orthogonalLoop=1;jettySize=auto;html=1;entryX=0.5;entryY=0;entryDx=0;entryDy=0;entryPerimeter=0;" parent="1" target="EB2zFyWqHdrt-Vx0YhkD-145" edge="1">
          <mxGeometry relative="1" as="geometry">
            <mxPoint x="-50" y="1040" as="sourcePoint" />
          </mxGeometry>
        </mxCell>
        <mxCell id="EB2zFyWqHdrt-Vx0YhkD-150" value="Tap" style="edgeLabel;html=1;align=center;verticalAlign=middle;resizable=0;points=[];" parent="EB2zFyWqHdrt-Vx0YhkD-148" vertex="1" connectable="0">
          <mxGeometry x="-0.3179" y="2" relative="1" as="geometry">
            <mxPoint as="offset" />
          </mxGeometry>
        </mxCell>
        <mxCell id="EB2zFyWqHdrt-Vx0YhkD-149" value="" style="shape=mxgraph.signs.transportation.car_4;html=1;pointerEvents=1;fillColor=#000000;strokeColor=none;verticalLabelPosition=bottom;verticalAlign=top;align=center;" parent="1" vertex="1">
          <mxGeometry x="-105" y="1325" width="110" height="90" as="geometry" />
        </mxCell>
        <mxCell id="EB2zFyWqHdrt-Vx0YhkD-169" value="" style="rounded=0;whiteSpace=wrap;html=1;" parent="1" vertex="1">
          <mxGeometry x="-440" y="910" width="160" height="120" as="geometry" />
        </mxCell>
        <mxCell id="EB2zFyWqHdrt-Vx0YhkD-170" value="Delete Photo" style="text;html=1;align=center;verticalAlign=middle;whiteSpace=wrap;rounded=0;" parent="1" vertex="1">
          <mxGeometry x="-430" y="924.06" width="80" height="30" as="geometry" />
        </mxCell>
        <mxCell id="EB2zFyWqHdrt-Vx0YhkD-171" value="Remove from Album" style="text;html=1;align=center;verticalAlign=middle;whiteSpace=wrap;rounded=0;" parent="1" vertex="1">
          <mxGeometry x="-435" y="990" width="120" height="30" as="geometry" />
        </mxCell>
        <mxCell id="EB2zFyWqHdrt-Vx0YhkD-172" value="Add to Album" style="text;html=1;align=center;verticalAlign=middle;whiteSpace=wrap;rounded=0;" parent="1" vertex="1">
          <mxGeometry x="-450" y="955" width="120" height="30" as="geometry" />
        </mxCell>
        <mxCell id="EB2zFyWqHdrt-Vx0YhkD-173" value="Are you sure?" style="rounded=0;whiteSpace=wrap;html=1;" parent="1" vertex="1">
          <mxGeometry x="-670" y="846.25" width="180" height="97" as="geometry" />
        </mxCell>
        <mxCell id="EB2zFyWqHdrt-Vx0YhkD-174" value="No" style="rounded=1;html=1;shadow=0;dashed=0;whiteSpace=wrap;fontSize=10;fillColor=#666666;align=center;strokeColor=#4D4D4D;fontColor=#ffffff;" parent="1" vertex="1">
          <mxGeometry x="-560" y="906.3699999999999" width="50" height="26.88" as="geometry" />
        </mxCell>
        <mxCell id="EB2zFyWqHdrt-Vx0YhkD-175" value="Yes" style="rounded=1;html=1;shadow=0;dashed=0;whiteSpace=wrap;fontSize=10;fillColor=#E6E6E6;align=center;strokeColor=#E6E6E6;fontColor=#333333;" parent="1" vertex="1">
          <mxGeometry x="-650" y="906.3699999999999" width="50" height="26.88" as="geometry" />
        </mxCell>
        <mxCell id="EB2zFyWqHdrt-Vx0YhkD-176" style="edgeStyle=orthogonalEdgeStyle;rounded=0;orthogonalLoop=1;jettySize=auto;html=1;entryX=1.009;entryY=0.478;entryDx=0;entryDy=0;entryPerimeter=0;" parent="1" source="EB2zFyWqHdrt-Vx0YhkD-170" target="EB2zFyWqHdrt-Vx0YhkD-173" edge="1">
          <mxGeometry relative="1" as="geometry" />
        </mxCell>
        <mxCell id="EB2zFyWqHdrt-Vx0YhkD-177" value="" style="rounded=0;whiteSpace=wrap;html=1;" parent="1" vertex="1">
          <mxGeometry x="-610" y="954.06" width="120" height="173.75" as="geometry" />
        </mxCell>
        <mxCell id="EB2zFyWqHdrt-Vx0YhkD-178" value="Exotics" style="text;html=1;align=center;verticalAlign=middle;whiteSpace=wrap;rounded=0;" parent="1" vertex="1">
          <mxGeometry x="-610" y="1004.06" width="60" height="30" as="geometry" />
        </mxCell>
        <mxCell id="EB2zFyWqHdrt-Vx0YhkD-179" value="" style="verticalLabelPosition=bottom;verticalAlign=top;html=1;shadow=0;dashed=0;strokeWidth=1;shape=mxgraph.android.quickscroll3;dy=0.076;fillColor=#33b5e5;strokeColor=#66D5F5;" parent="1" vertex="1">
          <mxGeometry x="-500" y="958.71" width="6" height="149.1" as="geometry" />
        </mxCell>
        <mxCell id="EB2zFyWqHdrt-Vx0YhkD-180" value="Sydney" style="text;html=1;align=center;verticalAlign=middle;whiteSpace=wrap;rounded=0;" parent="1" vertex="1">
          <mxGeometry x="-610" y="1070.56" width="60" height="30" as="geometry" />
        </mxCell>
        <mxCell id="EB2zFyWqHdrt-Vx0YhkD-181" value="BMW" style="text;html=1;align=center;verticalAlign=middle;whiteSpace=wrap;rounded=0;" parent="1" vertex="1">
          <mxGeometry x="-615" y="1025.93" width="60" height="30" as="geometry" />
        </mxCell>
        <mxCell id="EB2zFyWqHdrt-Vx0YhkD-182" value="Bmw G90 M5" style="text;html=1;align=center;verticalAlign=middle;whiteSpace=wrap;rounded=0;" parent="1" vertex="1">
          <mxGeometry x="-610" y="1048.26" width="90" height="30" as="geometry" />
        </mxCell>
        <mxCell id="EB2zFyWqHdrt-Vx0YhkD-183" value="Search" style="rounded=0;whiteSpace=wrap;html=1;" parent="1" vertex="1">
          <mxGeometry x="-600" y="960.06" width="90" height="20" as="geometry" />
        </mxCell>
        <mxCell id="EB2zFyWqHdrt-Vx0YhkD-184" value="" style="html=1;verticalLabelPosition=bottom;align=center;labelBackgroundColor=#ffffff;verticalAlign=top;strokeWidth=2;strokeColor=#000000;shadow=0;dashed=0;shape=mxgraph.ios7.icons.looking_glass;" parent="1" vertex="1">
          <mxGeometry x="-596.25" y="963.19" width="12.5" height="13.75" as="geometry" />
        </mxCell>
        <mxCell id="EB2zFyWqHdrt-Vx0YhkD-185" value="" style="rounded=0;whiteSpace=wrap;html=1;strokeColor=#666666;fillColor=#f5f5f5;fontColor=#333333;" parent="1" vertex="1">
          <mxGeometry x="-605" y="983.06" width="105" height="24" as="geometry" />
        </mxCell>
        <mxCell id="EB2zFyWqHdrt-Vx0YhkD-186" value="All" style="text;html=1;align=center;verticalAlign=middle;whiteSpace=wrap;rounded=0;" parent="1" vertex="1">
          <mxGeometry x="-620" y="980.06" width="60" height="30" as="geometry" />
        </mxCell>
        <mxCell id="EB2zFyWqHdrt-Vx0YhkD-187" style="edgeStyle=orthogonalEdgeStyle;rounded=0;orthogonalLoop=1;jettySize=auto;html=1;entryX=1.02;entryY=0.171;entryDx=0;entryDy=0;entryPerimeter=0;" parent="1" source="EB2zFyWqHdrt-Vx0YhkD-172" target="EB2zFyWqHdrt-Vx0YhkD-177" edge="1">
          <mxGeometry relative="1" as="geometry" />
        </mxCell>
        <mxCell id="EB2zFyWqHdrt-Vx0YhkD-188" style="edgeStyle=orthogonalEdgeStyle;rounded=0;orthogonalLoop=1;jettySize=auto;html=1;entryX=1.002;entryY=0.655;entryDx=0;entryDy=0;entryPerimeter=0;" parent="1" source="EB2zFyWqHdrt-Vx0YhkD-171" target="EB2zFyWqHdrt-Vx0YhkD-177" edge="1">
          <mxGeometry relative="1" as="geometry" />
        </mxCell>
        <mxCell id="EB2zFyWqHdrt-Vx0YhkD-189" value="Are you sure?" style="rounded=0;whiteSpace=wrap;html=1;" parent="1" vertex="1">
          <mxGeometry x="-450" y="1120" width="180" height="97" as="geometry" />
        </mxCell>
        <mxCell id="EB2zFyWqHdrt-Vx0YhkD-190" value="No" style="rounded=1;html=1;shadow=0;dashed=0;whiteSpace=wrap;fontSize=10;fillColor=#666666;align=center;strokeColor=#4D4D4D;fontColor=#ffffff;" parent="1" vertex="1">
          <mxGeometry x="-340" y="1180.12" width="50" height="26.88" as="geometry" />
        </mxCell>
        <mxCell id="EB2zFyWqHdrt-Vx0YhkD-191" value="Yes" style="rounded=1;html=1;shadow=0;dashed=0;whiteSpace=wrap;fontSize=10;fillColor=#E6E6E6;align=center;strokeColor=#E6E6E6;fontColor=#333333;" parent="1" vertex="1">
          <mxGeometry x="-430" y="1180.12" width="50" height="26.88" as="geometry" />
        </mxCell>
        <mxCell id="EB2zFyWqHdrt-Vx0YhkD-192" style="edgeStyle=orthogonalEdgeStyle;rounded=0;orthogonalLoop=1;jettySize=auto;html=1;entryX=0.417;entryY=0.005;entryDx=0;entryDy=0;entryPerimeter=0;" parent="1" edge="1">
          <mxGeometry relative="1" as="geometry">
            <mxPoint x="-470" y="1070" as="sourcePoint" />
            <mxPoint x="-347.48999999999995" y="1119.9950000000001" as="targetPoint" />
            <Array as="points">
              <mxPoint x="-347.55" y="1069.51" />
            </Array>
          </mxGeometry>
        </mxCell>
        <mxCell id="EB2zFyWqHdrt-Vx0YhkD-193" value="Add/remove" style="rounded=1;html=1;shadow=0;dashed=0;whiteSpace=wrap;fontSize=10;fillColor=#666666;align=center;strokeColor=#4D4D4D;fontColor=#ffffff;" parent="1" vertex="1">
          <mxGeometry x="-577.5" y="1103.12" width="57.5" height="16.88" as="geometry" />
        </mxCell>
        <mxCell id="EB2zFyWqHdrt-Vx0YhkD-195" value="Swipe to next photo" style="text;html=1;align=center;verticalAlign=middle;whiteSpace=wrap;rounded=0;" parent="1" vertex="1">
          <mxGeometry x="-237" y="1290" width="60" height="30" as="geometry" />
        </mxCell>
        <mxCell id="EB2zFyWqHdrt-Vx0YhkD-197" value="" style="rounded=0;whiteSpace=wrap;html=1;fillColor=#000000;" parent="1" vertex="1">
          <mxGeometry x="-487.18" y="1649" width="234.35" height="110" as="geometry" />
        </mxCell>
        <mxCell id="EB2zFyWqHdrt-Vx0YhkD-198" value="" style="rounded=0;whiteSpace=wrap;html=1;fillColor=#000000;" parent="1" vertex="1">
          <mxGeometry x="-484.35" y="1381.25" width="234.35" height="120" as="geometry" />
        </mxCell>
        <mxCell id="EB2zFyWqHdrt-Vx0YhkD-200" value="" style="shape=mxgraph.signs.transportation.car_4;html=1;pointerEvents=1;fillColor=#000000;strokeColor=none;verticalLabelPosition=bottom;verticalAlign=top;align=center;" parent="1" vertex="1">
          <mxGeometry x="-425" y="1546.25" width="110" height="90" as="geometry" />
        </mxCell>
        <mxCell id="EB2zFyWqHdrt-Vx0YhkD-201" style="edgeStyle=orthogonalEdgeStyle;rounded=0;orthogonalLoop=1;jettySize=auto;html=1;entryX=1.005;entryY=0.315;entryDx=0;entryDy=0;entryPerimeter=0;" parent="1" source="EB2zFyWqHdrt-Vx0YhkD-145" target="EB2zFyWqHdrt-Vx0YhkD-199" edge="1">
          <mxGeometry relative="1" as="geometry" />
        </mxCell>
        <mxCell id="EB2zFyWqHdrt-Vx0YhkD-202" value="Tap" style="edgeLabel;html=1;align=center;verticalAlign=middle;resizable=0;points=[];" parent="EB2zFyWqHdrt-Vx0YhkD-201" vertex="1" connectable="0">
          <mxGeometry x="-0.2198" y="-2" relative="1" as="geometry">
            <mxPoint as="offset" />
          </mxGeometry>
        </mxCell>
        <mxCell id="EB2zFyWqHdrt-Vx0YhkD-205" style="edgeStyle=orthogonalEdgeStyle;rounded=0;orthogonalLoop=1;jettySize=auto;html=1;entryX=1;entryY=0.75;entryDx=0;entryDy=0;" parent="1" source="EB2zFyWqHdrt-Vx0YhkD-204" target="EB2zFyWqHdrt-Vx0YhkD-169" edge="1">
          <mxGeometry relative="1" as="geometry">
            <Array as="points">
              <mxPoint x="-260" y="1410" />
              <mxPoint x="-260" y="1000" />
            </Array>
          </mxGeometry>
        </mxCell>
        <mxCell id="EB2zFyWqHdrt-Vx0YhkD-199" value="" style="verticalLabelPosition=bottom;verticalAlign=top;html=1;shadow=0;dashed=0;strokeWidth=1;shape=mxgraph.android.phone2;fillColor=#ffffff;strokeColor=#666666;fontColor=#333333;" parent="1" vertex="1">
          <mxGeometry x="-490" y="1351.25" width="240" height="440" as="geometry" />
        </mxCell>
        <mxCell id="EB2zFyWqHdrt-Vx0YhkD-204" value="" style="html=1;verticalLabelPosition=bottom;align=center;labelBackgroundColor=#ffffff;verticalAlign=top;strokeWidth=2;strokeColor=#545454;shadow=0;dashed=0;shape=mxgraph.ios7.icons.page_navigation;pointerEvents=1" parent="1" vertex="1">
          <mxGeometry x="-300" y="1407.5" width="30" height="4.8" as="geometry" />
        </mxCell>
        <mxCell id="EB2zFyWqHdrt-Vx0YhkD-203" value="" style="html=1;verticalLabelPosition=bottom;labelBackgroundColor=#ffffff;verticalAlign=top;shadow=0;dashed=0;strokeWidth=2;shape=mxgraph.ios7.misc.left;strokeColor=#ffffff;" parent="1" vertex="1">
          <mxGeometry x="-470" y="1403.75" width="10" height="17" as="geometry" />
        </mxCell>
        <mxCell id="EB2zFyWqHdrt-Vx0YhkD-212" value="" style="html=1;verticalLabelPosition=bottom;labelBackgroundColor=#ffffff;verticalAlign=top;shadow=0;dashed=0;strokeWidth=1;shape=mxgraph.ios7ui.iconGrid;fillColor=#c0c0c0;gridSize=3,3;" parent="1" vertex="1">
          <mxGeometry x="142.5" y="1355" width="175" height="208.75" as="geometry" />
        </mxCell>
        <mxCell id="EB2zFyWqHdrt-Vx0YhkD-213" value="" style="verticalLabelPosition=bottom;verticalAlign=top;html=1;shadow=0;dashed=0;strokeWidth=1;shape=mxgraph.android.phone2;fillColor=#ffffff;strokeColor=#666666;fontColor=#333333;" parent="1" vertex="1">
          <mxGeometry x="110" y="1140" width="240" height="440" as="geometry" />
        </mxCell>
        <mxCell id="EB2zFyWqHdrt-Vx0YhkD-214" value="" style="html=1;verticalLabelPosition=bottom;align=center;labelBackgroundColor=#ffffff;verticalAlign=top;strokeWidth=2;strokeColor=#545454;shadow=0;dashed=0;shape=mxgraph.ios7.icons.page_navigation;pointerEvents=1" parent="1" vertex="1">
          <mxGeometry x="300" y="1200" width="30" height="4.8" as="geometry" />
        </mxCell>
        <mxCell id="EB2zFyWqHdrt-Vx0YhkD-215" value="" style="html=1;verticalLabelPosition=bottom;labelBackgroundColor=#ffffff;verticalAlign=top;shadow=0;dashed=0;strokeWidth=2;shape=mxgraph.ios7.misc.left;strokeColor=#545454;" parent="1" vertex="1">
          <mxGeometry x="133.14999999999998" y="1193.9" width="10" height="17" as="geometry" />
        </mxCell>
        <mxCell id="EB2zFyWqHdrt-Vx0YhkD-219" value="" style="verticalLabelPosition=bottom;verticalAlign=top;html=1;shadow=0;dashed=0;strokeWidth=1;shape=mxgraph.android.quickscroll3;dy=0.076;fillColor=#33b5e5;strokeColor=#66D5F5;" parent="1" vertex="1">
          <mxGeometry x="329" y="1371.25" width="6" height="168.75" as="geometry" />
        </mxCell>
        <mxCell id="EB2zFyWqHdrt-Vx0YhkD-230" value="&lt;span style=&quot;font-size: 15px;&quot;&gt;Bmw G90 M5&lt;/span&gt;" style="text;html=1;align=center;verticalAlign=middle;whiteSpace=wrap;rounded=0;" parent="1" vertex="1">
          <mxGeometry x="160" y="1200" width="150" height="52" as="geometry" />
        </mxCell>
        <mxCell id="EB2zFyWqHdrt-Vx0YhkD-231" value="" style="rounded=0;whiteSpace=wrap;html=1;" parent="1" vertex="1">
          <mxGeometry x="141.9" y="1240" width="177.5" height="70" as="geometry" />
        </mxCell>
        <mxCell id="EB2zFyWqHdrt-Vx0YhkD-232" value="" style="shape=mxgraph.signs.transportation.car_4;html=1;pointerEvents=1;fillColor=#000000;strokeColor=none;verticalLabelPosition=bottom;verticalAlign=top;align=center;" parent="1" vertex="1">
          <mxGeometry x="206.9" y="1267.5000000000002" width="50" height="41" as="geometry" />
        </mxCell>
        <mxCell id="EB2zFyWqHdrt-Vx0YhkD-235" value="" style="html=1;verticalLabelPosition=bottom;labelBackgroundColor=#ffffff;verticalAlign=top;shadow=0;dashed=0;strokeWidth=1;shape=mxgraph.ios7ui.iconGrid;fillColor=#c0c0c0;gridSize=3,3;" parent="1" vertex="1">
          <mxGeometry x="142.5" y="1848.25" width="175" height="223" as="geometry" />
        </mxCell>
        <mxCell id="EB2zFyWqHdrt-Vx0YhkD-236" value="" style="verticalLabelPosition=bottom;verticalAlign=top;html=1;shadow=0;dashed=0;strokeWidth=1;shape=mxgraph.android.phone2;fillColor=#ffffff;strokeColor=#666666;fontColor=#333333;" parent="1" vertex="1">
          <mxGeometry x="110" y="1631.25" width="240" height="440" as="geometry" />
        </mxCell>
        <mxCell id="EB2zFyWqHdrt-Vx0YhkD-237" value="" style="html=1;verticalLabelPosition=bottom;align=center;labelBackgroundColor=#ffffff;verticalAlign=top;strokeWidth=2;strokeColor=#545454;shadow=0;dashed=0;shape=mxgraph.ios7.icons.page_navigation;pointerEvents=1" parent="1" vertex="1">
          <mxGeometry x="300" y="1691.25" width="30" height="4.8" as="geometry" />
        </mxCell>
        <mxCell id="EB2zFyWqHdrt-Vx0YhkD-238" value="" style="html=1;verticalLabelPosition=bottom;labelBackgroundColor=#ffffff;verticalAlign=top;shadow=0;dashed=0;strokeWidth=2;shape=mxgraph.ios7.misc.left;strokeColor=#545454;" parent="1" vertex="1">
          <mxGeometry x="133.14999999999998" y="1685.15" width="10" height="17" as="geometry" />
        </mxCell>
        <mxCell id="EB2zFyWqHdrt-Vx0YhkD-239" value="" style="verticalLabelPosition=bottom;verticalAlign=top;html=1;shadow=0;dashed=0;strokeWidth=1;shape=mxgraph.android.quickscroll3;dy=0.076;fillColor=#33b5e5;strokeColor=#66D5F5;" parent="1" vertex="1">
          <mxGeometry x="330" y="1839.25" width="6" height="182" as="geometry" />
        </mxCell>
        <mxCell id="EB2zFyWqHdrt-Vx0YhkD-240" value="&lt;span style=&quot;font-size: 15px;&quot;&gt;Add car&lt;/span&gt;" style="text;html=1;align=center;verticalAlign=middle;whiteSpace=wrap;rounded=0;" parent="1" vertex="1">
          <mxGeometry x="92.75" y="1696.05" width="150" height="52" as="geometry" />
        </mxCell>
        <mxCell id="EB2zFyWqHdrt-Vx0YhkD-241" value="[Select photo]" style="rounded=0;whiteSpace=wrap;html=1;" parent="1" vertex="1">
          <mxGeometry x="143.15" y="1748.05" width="177.5" height="78.75" as="geometry" />
        </mxCell>
        <mxCell id="EB2zFyWqHdrt-Vx0YhkD-243" value="" style="rounded=0;whiteSpace=wrap;html=1;" parent="1" vertex="1">
          <mxGeometry x="199.00000000000003" y="1710.8" width="107.5" height="22.5" as="geometry" />
        </mxCell>
        <mxCell id="EB2zFyWqHdrt-Vx0YhkD-246" value="" style="shape=image;html=1;verticalAlign=top;verticalLabelPosition=bottom;labelBackgroundColor=#ffffff;imageAspect=0;aspect=fixed;image=https://cdn2.iconfinder.com/data/icons/navigation-set-arrows-part-two/32/Arrow_Drop_Down_Circle-128.png" parent="1" vertex="1">
          <mxGeometry x="282" y="1713.05" width="18" height="18" as="geometry" />
        </mxCell>
        <mxCell id="EB2zFyWqHdrt-Vx0YhkD-249" style="edgeStyle=orthogonalEdgeStyle;rounded=0;orthogonalLoop=1;jettySize=auto;html=1;" parent="1" source="EB2zFyWqHdrt-Vx0YhkD-248" target="EB2zFyWqHdrt-Vx0YhkD-250" edge="1">
          <mxGeometry relative="1" as="geometry">
            <mxPoint x="-460" y="690" as="targetPoint" />
          </mxGeometry>
        </mxCell>
        <mxCell id="EB2zFyWqHdrt-Vx0YhkD-248" value="Add photos" style="rounded=1;html=1;shadow=0;dashed=0;whiteSpace=wrap;fontSize=10;fillColor=#666666;align=center;strokeColor=#4D4D4D;fontColor=#ffffff;" parent="1" vertex="1">
          <mxGeometry x="-501" y="636.36" width="82" height="26.88" as="geometry" />
        </mxCell>
        <mxCell id="EB2zFyWqHdrt-Vx0YhkD-250" value="opens grid view of photos to select" style="text;html=1;align=center;verticalAlign=middle;whiteSpace=wrap;rounded=0;" parent="1" vertex="1">
          <mxGeometry x="-500" y="689.5600000000001" width="80" height="30" as="geometry" />
        </mxCell>
        <mxCell id="EB2zFyWqHdrt-Vx0YhkD-255" value="" style="verticalLabelPosition=bottom;verticalAlign=top;html=1;shape=mxgraph.basic.x;strokeColor=default;fillColor=#000000;" parent="1" vertex="1">
          <mxGeometry x="-395" y="567" width="10" height="13" as="geometry" />
        </mxCell>
        <mxCell id="EB2zFyWqHdrt-Vx0YhkD-257" value="&lt;font style=&quot;font-size: 7px;&quot;&gt;Remove from Garage&lt;/font&gt;" style="rounded=1;html=1;shadow=0;dashed=0;whiteSpace=wrap;fontSize=10;fillColor=#666666;align=center;strokeColor=#4D4D4D;fontColor=#ffffff;" parent="1" vertex="1">
          <mxGeometry x="143.15" y="1320" width="86.85" height="20" as="geometry" />
        </mxCell>
      </root>
    </mxGraphModel>
  </diagram>
</mxfile>
